HIERARCHY
ROOT Hips
{
  OFFSET -80.2698 97.9671 -184.842
  CHANNELS 6 Xposition Yposition Zposition Zrotation Xrotation Yrotation
  JOINT ToSpine
  {
    OFFSET -2.69724 7.43032 -0.144315
    CHANNELS 3 Zrotation Xrotation Yrotation
    JOINT Spine
    {
      OFFSET -0.0310711 10.7595 1.96963
      CHANNELS 3 Zrotation Xrotation Yrotation
      JOINT Spine1
      {
        OFFSET 13.1342 3.43533 0.764692
        CHANNELS 3 Zrotation Xrotation Yrotation
        JOINT Neck
        {
          OFFSET 29.8703 7.82586 -0.130764
          CHANNELS 3 Zrotation Xrotation Yrotation
          JOINT Head
          {
            OFFSET 9.52751 0.295786 -0.907742
            CHANNELS 3 Zrotation Xrotation Yrotation
            End Site
            {
              OFFSET 16.4037 0.713936 2.7358
            }
          }
        }
        JOINT LeftShoulder
        {
          OFFSET 27.5574 4.95586 2.47156
          CHANNELS 3 Zrotation Xrotation Yrotation
          JOINT LeftArm
          {
            OFFSET 1.20734 -0.998971 20.1238
            CHANNELS 3 Zrotation Xrotation Yrotation
            JOINT LeftForeArm
            {
              OFFSET 26.8049 -0.0536703 -0.155908
              CHANNELS 3 Zrotation Xrotation Yrotation
              JOINT LeftHand
              {
                OFFSET 26.6817 0 0.320147
                CHANNELS 3 Zrotation Xrotation Yrotation
                End Site
                {
                  OFFSET 18.6119 0 0.382219
                }
              }
            }
          }
        }
        JOINT RightShoulder
        {
          OFFSET 27.5927 4.71444 -2.65209
          CHANNELS 3 Zrotation Xrotation Yrotation
          JOINT RightArm
          {
            OFFSET 2.83739 -1.17114 -18.7564
            CHANNELS 3 Zrotation Xrotation Yrotation
            JOINT RightForeArm
            {
              OFFSET 28.839 -0.0548439 1.22491
              CHANNELS 3 Zrotation Xrotation Yrotation
              JOINT RightHand
              {
                OFFSET 26.5114 0 -0.101894
                CHANNELS 3 Zrotation Xrotation Yrotation
                End Site
                {
                  OFFSET 18.2168 0 0
                }
              }
            }
          }
        }
      }
    }
  }
  JOINT LeftUpLeg
  {
    OFFSET -4.76168 -1.9167 -10.2353
    CHANNELS 3 Zrotation Xrotation Yrotation
    JOINT LeftLeg
    {
      OFFSET 2.55951 -42.0585 -8.02213
      CHANNELS 3 Zrotation Xrotation Yrotation
      JOINT LeftFoot
      {
        OFFSET 3.16357 -42.5282 -3.95426
        CHANNELS 3 Zrotation Xrotation Yrotation
        JOINT LeftToeBase
        {
          OFFSET 0.346054 -6.02161 12.8035
          CHANNELS 3 Zrotation Xrotation Yrotation
          End Site
          {
            OFFSET 0.134235 -1.35082 5.13018
          }
        }
      }
    }
  }
  JOINT RightUpLeg
  {
    OFFSET -4.94151 -1.41743 10.6446
    CHANNELS 3 Zrotation Xrotation Yrotation
    JOINT RightLeg
    {
      OFFSET -2.56294 -42.0364 -7.94377
      CHANNELS 3 Zrotation Xrotation Yrotation
      JOINT RightFoot
      {
        OFFSET -3.0952 -42.555 -4.02241
        CHANNELS 3 Zrotation Xrotation Yrotation
        JOINT RightToeBase
        {
          OFFSET -0.0828122 -6.13587 12.8035
          CHANNELS 3 Zrotation Xrotation Yrotation
          End Site
          {
            OFFSET -0.131328 -1.35082 5.13018
          }
        }
      }
    }
  }
}
MOTION
Frames:	15
Frame Time:	0.0333333
-60.4339 86.9113 -183.203 -6.02748 -71.9684 -102.641 -70.1915 0 88.8779 98.2616 70.4815 -9.85509 -0.677757 19.9471 3.36602 -154.684 20.442 -177.285 -150.792 59.0686 -175.58 -0.116762 -14.9829 -34.9598 -90.7104 32.7799 -68.7275 10.7053 17.8466 -31.2546 0.420957 0.000575443 0.35866 -1.87517 6.24816 44.5005 -71.7404 -28.4889 91.9212 8.84931 -13.0332 34.7431 0.58676 0.000331116 0.0646653 -44.9095 21.8473 80.5754 -2.11979 38.0931 -3.99672 -6.03337 8.06125 1.75418 -1.98715 1.11329 6.86923 -31.7773 -11.0386 104.553 7.45919 64.6312 4.2002 -3.5881 -22.3199 1.67931 2.27434 -16.6386 -14.6225 
-63.0436 87.5785 -183.535 -6.35653 -71.3306 -103.854 -70.1915 0 88.8779 100.149 70.3926 -11.5505 -1.48425 20.0882 2.90886 -155.026 20.4041 -176.736 -151.392 59.1434 -174.773 -0.0962897 -14.8364 -35.3149 -90.7615 32.4369 -68.7335 11.4512 18.0815 -32.6993 0.420957 0.000575443 0.35866 -1.91318 6.39355 44.3887 -70.5575 -27.9969 91.9417 8.4366 -12.1252 35.3586 0.58676 0.000331116 0.0646653 -45.0123 20.4818 81.5614 -2.05561 36.8175 -4.17672 -3.12582 3.99618 0.703791 -1.25171 0.933628 3.89532 -31.3099 -9.13871 105.158 7.28297 64.5811 3.52115 -2.87053 -23.4168 1.79255 2.29606 -14.238 -14.914 
-65.3774 88.5999 -183.97 -6.08997 -70.5027 -104.253 -70.1915 0 88.8779 100.917 70.429 -12.0853 -1.95115 20.2308 2.61651 -155.504 20.3369 -176.549 -150.82 59.044 -175.163 -0.170205 -15.0701 -35.6566 -91.4707 32.1494 -68.3288 12.2355 18.216 -34.3111 0.420957 0.000575443 0.35866 -1.9294 6.49774 44.1492 -69.6058 -27.3329 92.1392 8.35098 -11.9736 35.4222 0.58676 0.000331116 0.0646653 -44.2928 18.4663 83.094 -2.02899 36.399 -4.16387 -5.37689 0.821499 0.724507 -0.75635 -0.807897 5.87221 -31.159 -7.86274 105.055 6.74064 63.1917 3.84595 -1.897 -23.8357 1.8974 2.27916 -11.4688 -14.1558 
-67.4069 89.6438 -184.384 -5.69711 -69.363 -104.377 -70.1915 0 88.8779 99.7766 70.5906 -10.6333 -1.99703 20.3924 2.24607 -156.281 20.1266 -176.455 -150.973 58.873 -175.368 -0.173121 -15.077 -35.6849 -91.6523 32.2277 -68.466 12.3999 17.7103 -35.4255 0.420957 0.000575443 0.35866 -1.93719 6.43976 44.5312 -68.6971 -25.9616 92.2428 8.06859 -11.9025 34.6552 0.58676 0.000331116 0.0646653 -43.0198 16.3867 86.0171 -1.92921 36.5435 -3.15411 -2.59408 -1.3303 0.0982623 0.636769 -3.03567 4.44446 -30.8146 -6.81971 104.713 6.01606 61.3399 3.88957 -2.33549 -23.0766 1.81285 2.10522 -10.098 -11.9655 
-69.258 90.7308 -184.693 -5.33623 -68.9251 -104.082 -70.1915 0 88.8779 100.575 70.5966 -11.329 -2.17813 20.4082 2.28795 -156.566 20.0776 -176.611 -150.553 58.8126 -175.526 -0.150625 -15.0233 -35.4853 -91.1181 32.6243 -69.0527 12.262 16.8206 -36.4841 0.420957 0.000575443 0.35866 -1.91695 6.31276 44.8299 -67.9277 -24.7985 92.3703 7.44159 -11.3577 33.7277 0.58676 0.000331116 0.0646653 -42.4813 14.5389 89.0085 -1.94256 36.9232 -3.07859 -3.56534 -4.03068 -0.0641069 1.09828 -4.26682 5.57342 -31.7886 -5.45398 104.531 5.43445 58.9103 4.85237 -1.97061 -22.5026 1.80309 2.23926 -8.70629 -13.7053 
-70.8582 91.7383 -184.999 -4.51659 -68.7602 -103.191 -70.1915 0 88.8779 100.436 70.5654 -11.2174 -1.95021 20.2739 2.46211 -156.575 20.2338 -176.449 -150.991 59.0585 -174.84 -0.189361 -15.1538 -35.6287 -90.7738 32.5118 -69.372 12.9217 16.784 -38.0305 0.420957 0.000575443 0.35866 -1.90384 6.37641 44.3295 -67.8397 -24.7469 92.3048 7.05123 -11.0914 32.9279 0.58676 0.000331116 0.0646653 -41.9591 12.4467 92.2407 -1.84826 37.6572 -1.7882 -1.25175 -5.60806 -0.431865 2.02792 -5.39718 3.20258 -33.0145 -4.43925 104.132 4.70774 56.2753 4.66514 -1.63908 -21.797 1.77952 2.13186 -6.90164 -12.7239 
-72.2857 92.7258 -185.211 -3.40773 -68.8544 -101.943 -70.1915 0 88.8779 100.8 70.4988 -11.4387 -1.86096 20.2209 2.40722 -156.537 20.5033 -176.41 -151.138 59.32 -175.032 -0.291417 -15.4716 -36.0627 -91.2887 31.9618 -69.2324 13.9535 17.2813 -39.4546 0.420957 0.000575443 0.35866 -1.88698 6.40643 43.9353 -68.3356 -24.8505 91.7947 6.70884 -10.9317 32.0082 0.58676 0.000331116 0.0646653 -41.7343 9.82771 94.3576 -1.89562 38.5737 -1.62105 0.00691444 -6.8994 -0.634648 2.51643 -6.8018 4.92875 -34.6454 -3.6087 103.563 3.94337 53.3504 3.85391 -2.22732 -20.4421 1.65581 1.92858 -6.03578 -10.9733 
-73.6008 93.6223 -185.382 -1.59265 -68.9107 -99.653 -70.1915 0 88.8779 100.183 70.3106 -10.6899 -1.74362 19.9647 2.40318 -155.572 20.6159 -176.833 -151.183 59.4268 -174.442 -0.294797 -15.5095 -35.9421 -91.2376 31.913 -69.4457 14.3877 17.2159 -40.4542 0.420957 0.000575443 0.35866 -1.90051 6.38042 44.2599 -68.3055 -24.4518 91.2068 6.02743 -10.143 31.1723 0.58676 0.000331116 0.0646653 -41.2939 7.41205 95.8295 -2.00989 39.7283 -1.81838 0.503717 -8.81109 -0.810646 2.72602 -7.41461 5.82295 -36.3027 -2.76756 102.661 3.2613 50.2864 2.85146 -2.58714 -18.97 1.5497 1.75303 -5.67501 -9.54647 
-74.8071 94.4703 -185.492 -0.588726 -69.1025 -98.2529 -70.1915 0 88.8779 98.9791 70.3067 -9.93143 -1.4657 19.7437 2.82103 -154.707 20.7282 -177.613 -150.7 59.4574 -174.68 -0.305074 -15.5597 -35.8971 -91.0764 31.921 -69.6532 14.3097 16.6356 -41.2386 0.420957 0.000575443 0.35866 -1.89966 6.41257 44.0979 -69.1099 -24.7315 90.484 6.18275 -10.6895 30.5164 0.58676 0.000331116 0.0646653 -41.4202 5.05075 97.2176 -2.18822 40.5314 -2.69936 0.983394 -10.7519 -0.977194 3.06644 -8.23751 6.7127 -38.1372 -1.59682 102.574 2.65298 47.3562 1.38099 -2.11713 -17.9002 1.50313 1.5481 -4.04371 -8.16808 
-75.8492 95.1413 -185.578 1.1737 -69.3616 -96.0181 -70.1915 0 88.8779 97.3855 70.2348 -8.88713 -1.0613 19.4371 3.24814 -154.161 20.7926 -178.612 -150.379 59.4582 -175.173 -0.284402 -15.5577 -35.4968 -90.464 32.348 -70.2591 13.4281 15.3251 -41.6429 0.420957 0.000575443 0.35866 -1.90428 6.39489 44.2516 -69.6644 -24.8875 89.7852 5.67505 -10.0165 30.0014 0.58676 0.000331116 0.0646653 -41.6977 2.82564 98.1306 -2.507 41.2468 -4.90913 0.773265 -11.7696 -1.04309 3.27284 -9.19383 9.48278 -39.8362 -0.956294 101.964 2.06602 44.7798 -0.607235 -0.578492 -18.4722 1.58666 0.60013 0.691091 -4.19783 
-76.8224 95.7268 -185.582 2.55217 -69.5622 -93.8375 -70.1915 0 88.8779 95.0287 70.2549 -6.64956 -0.180323 19.2737 3.41962 -153.96 20.699 -179.792 -149.614 59.224 -176.495 -0.354741 -15.8523 -35.4377 -89.9679 32.1823 -70.8195 13.2065 14.823 -42.0815 0.420957 0.000575443 0.35866 -1.85019 6.20606 44.3141 -70.6052 -25.2169 89.1101 5.18337 -9.36392 29.434 0.58676 0.000331116 0.0646653 -42.3456 1.51804 99.2673 -2.9505 41.2142 -8.87052 0.686482 -12.2845 -1.08139 3.32937 -10.0935 14.4222 -41.5602 -0.330033 100.665 1.87169 42.0383 -0.302077 -1.2564 -17.3864 1.49853 0.627216 1.33769 -4.50057 
-77.6706 96.2053 -185.491 3.75444 -69.8209 -91.7634 -70.1915 0 88.8779 92.2445 70.1764 -3.98396 0.746042 19.0601 3.5035 -153.47 20.7164 178.793 -148.696 59.0997 -177.654 -0.355171 -15.9185 -35.143 -89.0364 32.2559 -71.7612 12.8117 14.3719 -42.0551 0.420957 0.000575443 0.35866 -1.83792 5.96524 45.3228 -71.4171 -24.6503 88.1908 4.72311 -8.72823 28.8929 0.58676 0.000331116 0.0646653 -43.2325 0.512725 99.6322 -2.95488 40.588 -9.54535 -0.298303 -12.9154 -1.11189 2.92043 -9.17578 12.7795 -43.4563 0.13675 98.7328 1.72636 38.9269 0.886591 -3.58934 -14.7247 1.29997 1.10214 -2.54033 -5.75998 
-78.4017 96.5975 -185.396 4.67106 -70.2738 -89.9003 -70.1915 0 88.8779 89.9789 70.1442 -1.98144 1.58605 18.8877 3.81326 -153.304 20.97 177.096 -147.279 59.169 -179.246 -0.3384 -15.9051 -34.8922 -87.6244 32.5234 -72.9298 12.6348 13.9694 -42.4414 0.420957 0.000575443 0.35866 -1.82232 5.91496 45.3297 -72.8875 -25.5284 87.1922 4.93304 -9.33682 28.3177 0.58676 0.000331116 0.0646653 -44.9051 -0.0729039 99.4562 -2.85826 38.6424 -10.2604 -0.0780882 -12.4848 -1.08042 2.0808 -7.60395 11.7265 -45.1896 0.413307 95.8562 1.00481 36.5115 2.57045 -3.65143 -13.817 1.2608 0.826674 -1.73254 -4.26001 
-78.9884 96.9243 -185.195 4.66891 -70.6537 -89.4658 -70.1915 0 88.8779 87.0364 70.1811 0.282725 2.19105 18.7562 4.35096 -152.336 21.1974 177.111 -149.095 59.7544 -176.774 -0.326714 -15.7997 -35.159 -86.9639 32.6429 -73.4226 12.4834 13.96 -42.1095 0.420957 0.000575443 0.35866 -1.79604 5.87016 45.1359 -73.153 -26.3628 86.7645 4.87623 -9.42383 27.8154 0.58676 0.000331116 0.0646653 -47.0297 -0.76737 98.5552 -2.49852 35.3436 -8.82398 0.256076 -11.3306 -0.996662 0.738059 -4.84701 9.8579 -46.6892 0.183632 92.0321 -0.251531 34.403 7.11655 -3.11967 -13.6362 1.24718 0.783368 -0.233546 -4.76227 
-79.4704 97.3147 -185.017 3.9342 -70.9212 -89.6678 -70.1915 0 88.8779 84.51 70.1279 2.91765 2.78079 18.8552 3.88453 -151.444 21.2733 176.139 -148.825 59.8209 -177.073 -0.282159 -15.646 -35.0297 -85.9356 33.0348 -74.1666 12.1489 13.8645 -41.5123 0.420957 0.000575443 0.35866 -1.81599 5.90149 45.2953 -73.6633 -27.014 86.2405 4.13637 -8.5843 26.975 0.58676 0.000331116 0.0646653 -49.2064 -0.926492 96.9468 -1.74883 31.2381 -6.47621 0.892181 -9.45641 -0.878911 -0.19161 -2.90085 8.84593 -48.4563 -0.176307 88.1051 -1.13243 31.4695 11.588 -2.87612 -12.8553 1.20141 0.634755 0.919529 -4.40521 
